<?xml version="1.0" encoding="UTF-8" standalone="no"?>
<!-- Created with Inkscape (http://www.inkscape.org/) -->

<svg
   xmlns:dc="http://purl.org/dc/elements/1.1/"
   xmlns:cc="http://creativecommons.org/ns#"
   xmlns:rdf="http://www.w3.org/1999/02/22-rdf-syntax-ns#"
   xmlns:svg="http://www.w3.org/2000/svg"
   xmlns="http://www.w3.org/2000/svg"
   xmlns:xlink="http://www.w3.org/1999/xlink"
   xmlns:sodipodi="http://sodipodi.sourceforge.net/DTD/sodipodi-0.dtd"
   xmlns:inkscape="http://www.inkscape.org/namespaces/inkscape"
   version="1.0"
   width="96"
   height="96"
   id="svg2408"
   inkscape:version="0.48.2 r9819"
   sodipodi:docname="nautilus.svg">
  <metadata
     id="metadata88">
    <rdf:RDF>
      <cc:Work
         rdf:about="">
        <dc:format>image/svg+xml</dc:format>
        <dc:type
           rdf:resource="http://purl.org/dc/dcmitype/StillImage" />
        <dc:title></dc:title>
      </cc:Work>
    </rdf:RDF>
  </metadata>
  <sodipodi:namedview
     pagecolor="#ffffff"
     bordercolor="#666666"
     borderopacity="1"
     objecttolerance="10"
     gridtolerance="10"
     guidetolerance="10"
     inkscape:pageopacity="0"
     inkscape:pageshadow="2"
     inkscape:window-width="800"
     inkscape:window-height="566"
     id="namedview86"
     showgrid="false"
     inkscape:zoom="2.9791667"
     inkscape:cx="5.8741267"
     inkscape:cy="48"
     inkscape:window-x="277"
     inkscape:window-y="24"
     inkscape:window-maximized="0"
     inkscape:current-layer="g3201" />
  <defs
     id="defs2410">
    <linearGradient
       x1="45.447727"
       y1="92.539597"
       x2="45.447727"
       y2="7.0165396"
       id="ButtonShadow"
       gradientUnits="userSpaceOnUse"
       gradientTransform="scale(1.0058652,0.994169)">
      <stop
         id="stop3750"
         style="stop-color:#000000;stop-opacity:1"
         offset="0" />
      <stop
         id="stop3752"
         style="stop-color:#000000;stop-opacity:0.58823532"
         offset="1" />
    </linearGradient>
    <linearGradient
       id="linearGradient3737">
      <stop
         id="stop3739"
         style="stop-color:#ffffff;stop-opacity:1"
         offset="0" />
      <stop
         id="stop3741"
         style="stop-color:#ffffff;stop-opacity:0"
         offset="1" />
    </linearGradient>
    <filter
       color-interpolation-filters="sRGB"
       id="filter3174">
      <feGaussianBlur
         id="feGaussianBlur3176"
         stdDeviation="1.71" />
    </filter>
    <linearGradient
       x1="36.357143"
       y1="6"
       x2="36.357143"
       y2="63.893143"
       id="linearGradient3188"
       xlink:href="#linearGradient3737"
       gradientUnits="userSpaceOnUse" />
    <filter
       x="-0.192"
       y="-0.192"
       width="1.3839999"
       height="1.3839999"
       color-interpolation-filters="sRGB"
       id="filter3794">
      <feGaussianBlur
         id="feGaussianBlur3796"
         stdDeviation="5.28" />
    </filter>
    <linearGradient
       x1="48"
       y1="20.220806"
       x2="48"
       y2="138.66119"
       id="linearGradient3613"
       xlink:href="#linearGradient3737"
       gradientUnits="userSpaceOnUse" />
    <radialGradient
       cx="48"
       cy="90.171875"
       r="42"
       fx="48"
       fy="90.171875"
       id="radialGradient3619"
       xlink:href="#linearGradient3737"
       gradientUnits="userSpaceOnUse"
       gradientTransform="matrix(1.1573129,0,0,0.99590774,-7.5510206,0.19713193)" />
    <clipPath
       id="clipPath3613">
      <rect
         width="84"
         height="84"
         rx="6"
         ry="6"
         x="6"
         y="6"
         id="rect3615"
         style="fill:#ffffff;fill-opacity:1;fill-rule:nonzero;stroke:none" />
    </clipPath>
    <linearGradient
       x1="48"
       y1="90"
       x2="48"
       y2="5.9877172"
       id="linearGradient3617"
       xlink:href="#ButtonColor"
       gradientUnits="userSpaceOnUse" />
    <linearGradient
       x1="10.31979"
       y1="21"
       x2="10.31979"
       y2="0.99929649"
       id="ButtonColor"
       gradientUnits="userSpaceOnUse">
      <stop
         id="stop3189"
         style="stop-color:#2764bf;stop-opacity:1"
         offset="0" />
      <stop
         id="stop3191"
         style="stop-color:#71a1e8;stop-opacity:1"
         offset="1" />
    </linearGradient>
    <linearGradient
       id="linearGradient6746">
      <stop
         id="stop6748"
         style="stop-color:#19407c;stop-opacity:1"
         offset="0" />
      <stop
         id="stop6750"
         style="stop-color:#4f87dc;stop-opacity:0.50588238"
         offset="0.28121248" />
      <stop
         id="stop6752"
         style="stop-color:#2156a4;stop-opacity:1"
         offset="0.45118788" />
      <stop
         id="stop6754"
         style="stop-color:#1b4789;stop-opacity:1"
         offset="0.58596319" />
      <stop
         id="stop6756"
         style="stop-color:#1f5bb4;stop-opacity:1"
         offset="0.76171201" />
      <stop
         id="stop6758"
         style="stop-color:#9abaeb;stop-opacity:0.98039216"
         offset="1" />
    </linearGradient>
    <linearGradient
       x1="50.420731"
       y1="111.18644"
       x2="68.841461"
       y2="9.1256237"
       id="linearGradient3664"
       xlink:href="#linearGradient6746"
       gradientUnits="userSpaceOnUse"
       gradientTransform="matrix(0,0.72413795,-0.72413794,0,94.34483,1.655173)" />
    <linearGradient
       x1="45.447727"
       y1="92.539597"
       x2="45.447727"
       y2="7.0165396"
       id="ButtonShadow-0"
       gradientUnits="userSpaceOnUse"
       gradientTransform="matrix(1.0058652,0,0,0.994169,100,0)">
      <stop
         id="stop3750-8"
         style="stop-color:#000000;stop-opacity:1"
         offset="0" />
      <stop
         id="stop3752-5"
         style="stop-color:#000000;stop-opacity:0.58823532"
         offset="1" />
    </linearGradient>
    <linearGradient
       x1="32.251034"
       y1="6.1317081"
       x2="32.251034"
       y2="90.238609"
       id="linearGradient3780"
       xlink:href="#ButtonShadow-0"
       gradientUnits="userSpaceOnUse"
       gradientTransform="matrix(1.0238095,0,0,1.0119048,-1.1428571,-98.071429)" />
    <linearGradient
       x1="32.251034"
       y1="6.1317081"
       x2="32.251034"
       y2="90.238609"
       id="linearGradient3772"
       xlink:href="#ButtonShadow-0"
       gradientUnits="userSpaceOnUse"
       gradientTransform="matrix(1.0238095,0,0,1.0119048,-1.1428571,-98.071429)" />
    <linearGradient
       x1="32.251034"
       y1="6.1317081"
       x2="32.251034"
       y2="90.238609"
       id="linearGradient3725"
       xlink:href="#ButtonShadow-0"
       gradientUnits="userSpaceOnUse"
       gradientTransform="matrix(1.0238095,0,0,1.0119048,-1.1428571,-98.071429)" />
    <linearGradient
       x1="32.251034"
       y1="6.1317081"
       x2="32.251034"
       y2="90.238609"
       id="linearGradient3721"
       xlink:href="#ButtonShadow-0"
       gradientUnits="userSpaceOnUse"
       gradientTransform="translate(0,-97)" />
    <linearGradient
       x1="32.251034"
       y1="6.1317081"
       x2="32.251034"
       y2="90.238609"
       id="linearGradient3122"
       xlink:href="#ButtonShadow-0"
       gradientUnits="userSpaceOnUse"
       gradientTransform="matrix(1.0238095,0,0,1.0119048,-1.1428571,-98.071429)" />
    <radialGradient
       gradientUnits="userSpaceOnUse"
       gradientTransform="matrix(-0.974603,0.79438,-0.474803,-0.582523,74.6494,26.0085)"
       r="11.68304"
       fy="26.358294"
       fx="27.73266"
       cy="30.812386"
       cx="25.501734"
       id="radialGradient2810"
       xlink:href="#linearGradient2800"
       inkscape:collect="always" />
    <linearGradient
       y2="25.987909"
       x2="25.339285"
       y1="10.541481"
       x1="36.589283"
       gradientUnits="userSpaceOnUse"
       id="linearGradient2234"
       xlink:href="#linearGradient2254"
       inkscape:collect="always" />
    <linearGradient
       y2="-3.1949208"
       x2="21.066965"
       y1="16.85297"
       x1="26.59787"
       gradientUnits="userSpaceOnUse"
       id="linearGradient2387"
       xlink:href="#linearGradient2246"
       inkscape:collect="always" />
    <linearGradient
       y2="37.941383"
       x2="35.825676"
       y1="-2.4229071"
       x1="9.8042097"
       gradientTransform="matrix(0.941299,0,0,0.95119,1.51264,1.01253)"
       gradientUnits="userSpaceOnUse"
       id="linearGradient2383"
       xlink:href="#linearGradient2207"
       inkscape:collect="always" />
    <radialGradient
       r="12.332547"
       fy="8.8713007"
       fx="1.6693171"
       cy="9.6087761"
       cx="2.2106946"
       gradientTransform="matrix(-1.40685,-0.0271934,-0.026153,1.35303,28.4083,13.1032)"
       gradientUnits="userSpaceOnUse"
       id="radialGradient2381"
       xlink:href="#linearGradient2193"
       inkscape:collect="always" />
    <radialGradient
       r="19.622213"
       fy="39.161163"
       fx="25.455845"
       cy="39.161163"
       cx="25.455845"
       gradientTransform="matrix(1,0,0,0.315315,0,26.813)"
       gradientUnits="userSpaceOnUse"
       id="radialGradient2315"
       xlink:href="#linearGradient3256"
       inkscape:collect="always" />
    <linearGradient
       inkscape:collect="always"
       id="linearGradient3256">
      <stop
         style="stop-color: rgb(0, 0, 0); stop-opacity: 1;"
         offset="0"
         id="stop3258" />
      <stop
         style="stop-color: rgb(0, 0, 0); stop-opacity: 0;"
         offset="1"
         id="stop3260" />
    </linearGradient>
    <linearGradient
       id="linearGradient2193">
      <stop
         id="stop2195"
         offset="0"
         style="stop-color: rgb(124, 47, 3); stop-opacity: 1;" />
      <stop
         id="stop2197"
         offset="1"
         style="stop-color: rgb(255, 151, 48); stop-opacity: 1;" />
    </linearGradient>
    <linearGradient
       id="linearGradient2207"
       inkscape:collect="always">
      <stop
         id="stop2209"
         offset="0"
         style="stop-color: rgb(255, 255, 255); stop-opacity: 1;" />
      <stop
         id="stop2211"
         offset="1"
         style="stop-color: white; stop-opacity: 0.376426;" />
    </linearGradient>
    <linearGradient
       id="linearGradient2246"
       inkscape:collect="always">
      <stop
         id="stop2248"
         offset="0"
         style="stop-color: rgb(255, 255, 255); stop-opacity: 1;" />
      <stop
         id="stop2250"
         offset="1"
         style="stop-color: rgb(255, 255, 255); stop-opacity: 0;" />
    </linearGradient>
    <linearGradient
       id="linearGradient2254"
       inkscape:collect="always">
      <stop
         id="stop2256"
         offset="0"
         style="stop-color: rgb(140, 65, 4); stop-opacity: 1;" />
      <stop
         id="stop2258"
         offset="1"
         style="stop-color: rgb(160, 78, 11); stop-opacity: 0;" />
    </linearGradient>
    <linearGradient
       id="linearGradient2800"
       inkscape:collect="always">
      <stop
         id="stop2802"
         offset="0"
         style="stop-color: rgb(127, 49, 4); stop-opacity: 0;" />
      <stop
         id="stop2804"
         offset="1"
         style="stop-color: rgb(127, 49, 4); stop-opacity: 1;" />
    </linearGradient>
    <linearGradient
       inkscape:collect="always"
       xlink:href="#linearGradient3737"
       id="linearGradient3153"
       gradientUnits="userSpaceOnUse"
       x1="48"
       y1="20.220806"
       x2="48"
       y2="138.66119" />
    <linearGradient
       x1="50.420731"
       y1="111.18644"
       x2="68.841461"
       y2="9.1256237"
       id="linearGradient3664-6"
       xlink:href="#linearGradient6746-0"
       gradientUnits="userSpaceOnUse"
       gradientTransform="matrix(0,0.72413795,-0.72413794,0,94.34483,1.655173)" />
    <linearGradient
       id="linearGradient6746-0">
      <stop
         id="stop6748-4"
         style="stop-color:#19407c;stop-opacity:1"
         offset="0" />
      <stop
         id="stop6750-1"
         style="stop-color:#4f87dc;stop-opacity:0.50588238"
         offset="0.28121248" />
      <stop
         id="stop6752-0"
         style="stop-color:#2156a4;stop-opacity:1"
         offset="0.45118788" />
      <stop
         id="stop6754-4"
         style="stop-color:#1b4789;stop-opacity:1"
         offset="0.58596319" />
      <stop
         id="stop6756-8"
         style="stop-color:#1f5bb4;stop-opacity:1"
         offset="0.76171201" />
      <stop
         id="stop6758-7"
         style="stop-color:#9abaeb;stop-opacity:0.98039216"
         offset="1" />
    </linearGradient>
    <linearGradient
       y2="9.1256237"
       x2="68.841461"
       y1="111.18644"
       x1="50.420731"
       gradientTransform="matrix(0,0.72413795,-0.72413794,0,101.05811,10.71811)"
       gradientUnits="userSpaceOnUse"
       id="linearGradient3174"
       xlink:href="#linearGradient6746-0"
       inkscape:collect="always" />
    <linearGradient
       inkscape:collect="always"
       xlink:href="#linearGradient3737"
       id="linearGradient3255"
       gradientUnits="userSpaceOnUse"
       x1="48"
       y1="20.220806"
       x2="48"
       y2="138.66119" />
    <linearGradient
       y2="9.1256237"
       x2="68.841461"
       y1="111.18644"
       x1="50.420731"
       gradientTransform="matrix(0,0.72413795,-0.72413794,0,101.05811,10.71811)"
       gradientUnits="userSpaceOnUse"
       id="linearGradient3174-8"
       xlink:href="#linearGradient6746-0-7"
       inkscape:collect="always" />
    <linearGradient
       id="linearGradient6746-0-7">
      <stop
         id="stop6748-4-4"
         style="stop-color:#19407c;stop-opacity:1"
         offset="0" />
      <stop
         id="stop6750-1-1"
         style="stop-color:#4f87dc;stop-opacity:0.50588238"
         offset="0.28121248" />
      <stop
         id="stop6752-0-9"
         style="stop-color:#2156a4;stop-opacity:1"
         offset="0.45118788" />
      <stop
         id="stop6754-4-0"
         style="stop-color:#1b4789;stop-opacity:1"
         offset="0.58596319" />
      <stop
         id="stop6756-8-9"
         style="stop-color:#1f5bb4;stop-opacity:1"
         offset="0.76171201" />
      <stop
         id="stop6758-7-8"
         style="stop-color:#9abaeb;stop-opacity:0.98039216"
         offset="1" />
    </linearGradient>
    <linearGradient
       y2="9.1256237"
       x2="68.841461"
       y1="111.18644"
       x1="50.420731"
       gradientTransform="matrix(0,0.72413795,-0.72413794,0,94.34483,1.6551731)"
       gradientUnits="userSpaceOnUse"
       id="linearGradient3251"
       xlink:href="#linearGradient6746-0-7"
       inkscape:collect="always" />
    <radialGradient
       inkscape:collect="always"
       xlink:href="#linearGradient3256"
       id="radialGradient3498"
       gradientUnits="userSpaceOnUse"
       gradientTransform="matrix(1,0,0,0.315315,0,26.813)"
       cx="25.455845"
       cy="39.161163"
       fx="25.455845"
       fy="39.161163"
       r="19.622213" />
    <radialGradient
       inkscape:collect="always"
       xlink:href="#linearGradient2193"
       id="radialGradient3500"
       gradientUnits="userSpaceOnUse"
       gradientTransform="matrix(-1.40685,-0.0271934,-0.026153,1.35303,28.4083,13.1032)"
       cx="2.2106946"
       cy="9.6087761"
       fx="1.6693171"
       fy="8.8713007"
       r="12.332547" />
    <linearGradient
       inkscape:collect="always"
       xlink:href="#linearGradient2207"
       id="linearGradient3502"
       gradientUnits="userSpaceOnUse"
       gradientTransform="matrix(0.941299,0,0,0.95119,1.51264,1.01253)"
       x1="9.8042097"
       y1="-2.4229071"
       x2="35.825676"
       y2="37.941383" />
    <linearGradient
       inkscape:collect="always"
       xlink:href="#linearGradient2254"
       id="linearGradient3504"
       gradientUnits="userSpaceOnUse"
       x1="36.589283"
       y1="10.541481"
       x2="25.339285"
       y2="25.987909" />
    <linearGradient
       inkscape:collect="always"
       xlink:href="#linearGradient2246"
       id="linearGradient3506"
       gradientUnits="userSpaceOnUse"
       x1="26.59787"
       y1="16.85297"
       x2="21.066965"
       y2="-3.1949208" />
    <radialGradient
       inkscape:collect="always"
       xlink:href="#linearGradient2800"
       id="radialGradient3508"
       gradientUnits="userSpaceOnUse"
       gradientTransform="matrix(-0.974603,0.79438,-0.474803,-0.582523,74.6494,26.0085)"
       cx="25.501734"
       cy="30.812386"
       fx="27.73266"
       fy="26.358294"
       r="11.68304" />
    <filter
       id="filter3474"
       inkscape:label="Drop shadow"
       width="1.5"
       height="1.5"
       x="-.25"
       y="-.25">
      <feGaussianBlur
         id="feGaussianBlur3476"
         in="SourceAlpha"
         stdDeviation="0.8"
         result="blur" />
      <feColorMatrix
         id="feColorMatrix3478"
         result="bluralpha"
         type="matrix"
         values="1 0 0 0 0 0 1 0 0 0 0 0 1 0 0 0 0 0 0.7 0 " />
      <feOffset
         id="feOffset3480"
         in="bluralpha"
         dx="-1"
         dy="1"
         result="offsetBlur" />
      <feMerge
         id="feMerge3482">
        <feMergeNode
           id="feMergeNode3484"
           in="offsetBlur" />
        <feMergeNode
           id="feMergeNode3486"
           in="SourceGraphic" />
      </feMerge>
    </filter>
    <linearGradient
       inkscape:collect="always"
       xlink:href="#linearGradient3737-1"
       id="linearGradient3255-8"
       gradientUnits="userSpaceOnUse"
       x1="48"
       y1="20.220806"
       x2="48"
       y2="138.66119" />
    <linearGradient
       id="linearGradient3737-1">
      <stop
         id="stop3739-0"
         style="stop-color:#ffffff;stop-opacity:1"
         offset="0" />
      <stop
         id="stop3741-3"
         style="stop-color:#ffffff;stop-opacity:0"
         offset="1" />
    </linearGradient>
    <clipPath
       id="clipPath3613-0">
      <rect
         width="84"
         height="84"
         rx="6"
         ry="6"
         x="6"
         y="6"
         id="rect3615-4"
         style="fill:#ffffff;fill-opacity:1;fill-rule:nonzero;stroke:none" />
    </clipPath>
    <filter
       x="-0.192"
       y="-0.192"
       width="1.3839999"
       height="1.3839999"
       color-interpolation-filters="sRGB"
       id="filter3794-4">
      <feGaussianBlur
         id="feGaussianBlur3796-4"
         stdDeviation="5.28" />
    </filter>
    <linearGradient
       y2="138.66119"
       x2="48"
       y1="20.220806"
       x1="48"
       gradientUnits="userSpaceOnUse"
       id="linearGradient3522"
       xlink:href="#linearGradient3737-1"
       inkscape:collect="always" />
    <linearGradient
       x1="50.420731"
       y1="111.18644"
       x2="68.841461"
       y2="9.1256237"
       id="linearGradient3664-8"
       xlink:href="#linearGradient6746-1"
       gradientUnits="userSpaceOnUse"
       gradientTransform="matrix(0,0.72413795,-0.72413794,0,94.34483,1.655173)" />
    <linearGradient
       id="linearGradient6746-1">
      <stop
         id="stop6748-3"
         style="stop-color:#19407c;stop-opacity:1"
         offset="0" />
      <stop
         id="stop6750-11"
         style="stop-color:#4f87dc;stop-opacity:0.50588238"
         offset="0.28121248" />
      <stop
         id="stop6752-03"
         style="stop-color:#2156a4;stop-opacity:1"
         offset="0.45118788" />
      <stop
         id="stop6754-40"
         style="stop-color:#1b4789;stop-opacity:1"
         offset="0.58596319" />
      <stop
         id="stop6756-3"
         style="stop-color:#1f5bb4;stop-opacity:1"
         offset="0.76171201" />
      <stop
         id="stop6758-9"
         style="stop-color:#9abaeb;stop-opacity:0.98039216"
         offset="1" />
    </linearGradient>
    <linearGradient
       y2="9.1256237"
       x2="68.841461"
       y1="111.18644"
       x1="50.420731"
       gradientTransform="matrix(0,0.72413795,-0.72413794,0,94.143993,2.446861)"
       gradientUnits="userSpaceOnUse"
       id="linearGradient3619"
       xlink:href="#linearGradient6746-1"
       inkscape:collect="always" />
    <clipPath
       clipPathUnits="userSpaceOnUse"
       id="clipPath3646">
      <path
         inkscape:connector-curvature="0"
         style="opacity:0.3;fill:url(#linearGradient3650);fill-opacity:1;stroke:none;display:inline"
         id="path3648"
         d="m 5.6590899,1.81265 c -1.8663128,0 -3.3760403,1.5097259 -3.3760403,3.3760402 l 0,36.6679968 c 0,1.866314 1.5097275,3.37604 3.3760403,3.37604 l 36.6679971,0 c 1.866313,0 3.37604,-1.509726 3.37604,-3.37604 l 0,-36.6679968 c 0,-1.8663143 -1.509727,-3.3760402 -3.37604,-3.3760402 l -36.6679971,0 z" />
    </clipPath>
    <linearGradient
       inkscape:collect="always"
       xlink:href="#linearGradient6746-1"
       id="linearGradient3650"
       gradientUnits="userSpaceOnUse"
       gradientTransform="matrix(0,0.37431102,-0.37431102,0,47.948996,-0.43321581)"
       x1="50.420731"
       y1="111.18644"
       x2="68.841461"
       y2="9.1256237" />
    <linearGradient
       inkscape:collect="always"
       xlink:href="#linearGradient4392"
       id="linearGradient4551"
       gradientUnits="userSpaceOnUse"
       x1="-72.661118"
       y1="76.519829"
       x2="-72.661118"
       y2="13.524622" />
    <linearGradient
       inkscape:collect="always"
       id="linearGradient4392">
      <stop
         style="stop-color:#999999;stop-opacity:1;"
         offset="0"
         id="stop4394" />
      <stop
         style="stop-color:#999999;stop-opacity:0;"
         offset="1"
         id="stop4396" />
    </linearGradient>
    <radialGradient
       inkscape:collect="always"
       xlink:href="#linearGradient3737"
       id="radialGradient3733"
       gradientUnits="userSpaceOnUse"
       gradientTransform="matrix(1.1573129,0,0,0.99590774,-7.5510206,0.19713193)"
       cx="48"
       cy="90.171875"
       fx="48"
       fy="90.171875"
       r="42" />
    <linearGradient
       inkscape:collect="always"
       xlink:href="#linearGradient3737"
       id="linearGradient3736"
       gradientUnits="userSpaceOnUse"
       x1="36.357143"
       y1="6"
       x2="36.357143"
       y2="63.893143" />
    <linearGradient
       inkscape:collect="always"
       xlink:href="#ButtonShadow-0"
       id="linearGradient3745"
       gradientUnits="userSpaceOnUse"
       gradientTransform="translate(0,-97)"
       x1="32.251034"
       y1="6.1317081"
       x2="32.251034"
       y2="90.238609" />
    <linearGradient
       inkscape:collect="always"
       xlink:href="#ButtonShadow-0"
       id="linearGradient3748"
       gradientUnits="userSpaceOnUse"
       gradientTransform="matrix(1.0238095,0,0,1.0119048,-1.1428571,-98.071429)"
       x1="32.251034"
       y1="6.1317081"
       x2="32.251034"
       y2="90.238609" />
    <linearGradient
       inkscape:collect="always"
       xlink:href="#ButtonShadow-0"
       id="linearGradient3751"
       gradientUnits="userSpaceOnUse"
       gradientTransform="matrix(1.0238095,0,0,-1.0119048,-1.1428571,98.071429)"
       x1="32.251034"
       y1="6.1317081"
       x2="32.251034"
       y2="90.238609" />
    <linearGradient
       inkscape:collect="always"
       xlink:href="#ButtonShadow-0"
       id="linearGradient3754"
       gradientUnits="userSpaceOnUse"
       gradientTransform="matrix(1.0238095,0,0,-1.0119048,-1.1428571,98.071429)"
       x1="32.251034"
       y1="6.1317081"
       x2="32.251034"
       y2="90.238609" />
    <linearGradient
       inkscape:collect="always"
       xlink:href="#ButtonShadow-0"
       id="linearGradient3757"
       gradientUnits="userSpaceOnUse"
       gradientTransform="matrix(1.0238095,0,0,-1.0119048,-1.1428571,98.071429)"
       x1="32.251034"
       y1="6.1317081"
       x2="32.251034"
       y2="90.238609" />
    <linearGradient
       inkscape:collect="always"
       xlink:href="#linearGradient4392"
       id="linearGradient3759"
       gradientUnits="userSpaceOnUse"
       x1="-72.661118"
       y1="76.519829"
       x2="-72.661118"
       y2="13.524622" />
  </defs>
  <g
     id="layer2"
     style="display:none">
    <rect
       width="86"
       height="85"
       rx="6"
       ry="6"
       x="5"
       y="7"
       id="rect3745"
       style="opacity:0.9;fill:url(#ButtonShadow);fill-opacity:1;fill-rule:nonzero;stroke:none;filter:url(#filter3174)" />
  </g>
  <g
     id="g3201">
    <path
       inkscape:connector-curvature="0"
       d="M 12,95.03125 C 6.4889097,95.03125 1.96875,90.51109 1.96875,85 l 0,-71 C 1.96875,8.4889098 6.4889098,3.96875 12,3.96875 l 72,0 c 5.51109,0 10.03125,4.5201597 10.03125,10.03125 l 0,71 c 0,5.51109 -4.52016,10.03125 -10.03125,10.03125 l -72,0 z"
       id="path3786"
       style="opacity:0.07999998;fill:url(#linearGradient3757);fill-opacity:1;fill-rule:nonzero;stroke:none;display:inline" />
    <path
       inkscape:connector-curvature="0"
       d="M 12,94.03125 C 7.028367,94.03125 2.96875,89.971633 2.96875,85 l 0,-71 C 2.96875,9.0283671 7.0283671,4.96875 12,4.96875 l 72,0 c 4.971633,0 9.03125,4.059617 9.03125,9.03125 l 0,71 c 0,4.971633 -4.059617,9.03125 -9.03125,9.03125 l -72,0 z"
       id="path3778"
       style="opacity:0.1;fill:url(#linearGradient3754);fill-opacity:1;fill-rule:nonzero;stroke:none;display:inline" />
    <path
       inkscape:connector-curvature="0"
       d="M 12,93 C 7.5908667,93 4,89.409133 4,85 L 4,14 C 4,9.5908667 7.5908667,6 12,6 l 72,0 c 4.409133,0 8,3.5908667 8,8 l 0,71 c 0,4.409133 -3.590867,8 -8,8 l -72,0 z"
       id="path3770"
       style="opacity:0.2;fill:url(#linearGradient3751);fill-opacity:1;fill-rule:nonzero;stroke:none;display:inline" />
    <rect
       width="86"
       height="85"
       rx="7"
       ry="7"
       x="5"
       y="-92"
       transform="scale(1,-1)"
       id="rect3723"
       style="opacity:0.3;fill:url(#linearGradient3748);fill-opacity:1;fill-rule:nonzero;stroke:none;display:inline" />
    <rect
       width="84"
       height="84"
       rx="6"
       ry="6"
       x="6"
       y="-91"
       transform="scale(1,-1)"
       id="rect3716"
       style="opacity:0.45;fill:url(#linearGradient3745);fill-opacity:1;fill-rule:nonzero;stroke:none;display:inline" />
    <rect
       width="84"
       height="84"
       rx="6"
       ry="6"
       x="6"
       y="6"
       id="rect2419"
       style="fill:#000000;fill-opacity:1;fill-rule:nonzero;stroke:none" />
    <path
       inkscape:connector-curvature="0"
       d="M 12.53125,6 C 8.9207019,6 6,8.920699 6,12.53125 l 0,70.9375 C 6,87.0793 8.9207019,90 12.53125,90 l 70.9375,0 C 87.079298,90 90,87.0793 90,83.46875 l 0,-70.9375 C 90,8.920699 87.079298,6 83.46875,6 l -70.9375,0 z"
       id="path3534"
       style="opacity:0.29999999999999999;fill:#1a1a1a;fill-opacity:1;stroke:none;display:inline" />
    <path
       inkscape:connector-curvature="0"
       d="M 12,6 C 8.676,6 6,8.676 6,12 l 0,2 0,68 0,2 c 0,0.334721 0.04135,0.6507 0.09375,0.96875 0.0487,0.295596 0.09704,0.596915 0.1875,0.875 0.00988,0.03038 0.020892,0.0636 0.03125,0.09375 0.098865,0.287771 0.2348802,0.547452 0.375,0.8125 0.1445918,0.273507 0.3156161,0.535615 0.5,0.78125 0.1843839,0.245635 0.3737765,0.473472 0.59375,0.6875 0.439947,0.428056 0.94291,0.814526 1.5,1.09375 0.278545,0.139612 0.5734731,0.246947 0.875,0.34375 -0.2562018,-0.100222 -0.4867109,-0.236272 -0.71875,-0.375 -0.00741,-0.0044 -0.023866,0.0045 -0.03125,0 -0.031933,-0.0193 -0.062293,-0.04251 -0.09375,-0.0625 -0.120395,-0.0767 -0.2310226,-0.163513 -0.34375,-0.25 -0.1061728,-0.0808 -0.2132809,-0.161112 -0.3125,-0.25 C 8.4783201,88.557317 8.3087904,88.373362 8.15625,88.1875 8.0486711,88.057245 7.9378561,87.922215 7.84375,87.78125 7.818661,87.74287 7.805304,87.69538 7.78125,87.65625 7.716487,87.553218 7.6510225,87.451733 7.59375,87.34375 7.4927417,87.149044 7.3880752,86.928049 7.3125,86.71875 7.30454,86.69694 7.288911,86.6782 7.28125,86.65625 7.2494249,86.5643 7.2454455,86.469419 7.21875,86.375 7.1884177,86.268382 7.1483606,86.171969 7.125,86.0625 7.0521214,85.720988 7,85.364295 7,85 L 7,83 7,15 7,13 C 7,10.218152 9.2181517,8 12,8 l 2,0 68,0 2,0 c 2.781848,0 5,2.218152 5,5 l 0,2 0,68 0,2 c 0,0.364295 -0.05212,0.720988 -0.125,1.0625 -0.04415,0.206893 -0.08838,0.397658 -0.15625,0.59375 -0.0077,0.02195 -0.0233,0.04069 -0.03125,0.0625 -0.06274,0.173739 -0.138383,0.367449 -0.21875,0.53125 -0.04158,0.0828 -0.07904,0.169954 -0.125,0.25 -0.0546,0.09721 -0.126774,0.18835 -0.1875,0.28125 -0.09411,0.140965 -0.204921,0.275995 -0.3125,0.40625 -0.143174,0.17445 -0.303141,0.346998 -0.46875,0.5 -0.01117,0.0102 -0.01998,0.02115 -0.03125,0.03125 -0.138386,0.125556 -0.285091,0.234436 -0.4375,0.34375 -0.102571,0.07315 -0.204318,0.153364 -0.3125,0.21875 -0.0074,0.0045 -0.02384,-0.0044 -0.03125,0 -0.232039,0.138728 -0.462548,0.274778 -0.71875,0.375 0.301527,-0.0968 0.596455,-0.204138 0.875,-0.34375 0.55709,-0.279224 1.060053,-0.665694 1.5,-1.09375 0.219973,-0.214028 0.409366,-0.441865 0.59375,-0.6875 0.184384,-0.245635 0.355408,-0.507743 0.5,-0.78125 0.14012,-0.265048 0.276135,-0.524729 0.375,-0.8125 0.01041,-0.03078 0.02133,-0.06274 0.03125,-0.09375 0.09046,-0.278085 0.1388,-0.579404 0.1875,-0.875 C 89.95865,84.6507 90,84.334721 90,84 l 0,-2 0,-68 0,-2 C 90,8.676 87.324,6 84,6 L 12,6 z"
       id="rect3728"
       style="opacity:0.4;fill:url(#linearGradient3736);fill-opacity:1;fill-rule:nonzero;stroke:none" />
    <path
       inkscape:connector-curvature="0"
       d="M 12,90 C 8.676,90 6,87.324 6,84 L 6,82 6,14 6,12 c 0,-0.334721 0.04135,-0.6507 0.09375,-0.96875 0.0487,-0.295596 0.09704,-0.596915 0.1875,-0.875 C 6.29113,10.12587 6.302142,10.09265 6.3125,10.0625 6.411365,9.774729 6.5473802,9.515048 6.6875,9.25 6.8320918,8.976493 7.0031161,8.714385 7.1875,8.46875 7.3718839,8.223115 7.5612765,7.995278 7.78125,7.78125 8.221197,7.353194 8.72416,6.966724 9.28125,6.6875 9.559795,6.547888 9.8547231,6.440553 10.15625,6.34375 9.9000482,6.443972 9.6695391,6.580022 9.4375,6.71875 c -0.00741,0.0044 -0.023866,-0.0045 -0.03125,0 -0.031933,0.0193 -0.062293,0.04251 -0.09375,0.0625 -0.120395,0.0767 -0.2310226,0.163513 -0.34375,0.25 -0.1061728,0.0808 -0.2132809,0.161112 -0.3125,0.25 C 8.4783201,7.442683 8.3087904,7.626638 8.15625,7.8125 8.0486711,7.942755 7.9378561,8.077785 7.84375,8.21875 7.818661,8.25713 7.805304,8.30462 7.78125,8.34375 7.716487,8.446782 7.6510225,8.548267 7.59375,8.65625 7.4927417,8.850956 7.3880752,9.071951 7.3125,9.28125 7.30454,9.30306 7.288911,9.3218 7.28125,9.34375 7.2494249,9.4357 7.2454455,9.530581 7.21875,9.625 7.1884177,9.731618 7.1483606,9.828031 7.125,9.9375 7.0521214,10.279012 7,10.635705 7,11 l 0,2 0,68 0,2 c 0,2.781848 2.2181517,5 5,5 l 2,0 68,0 2,0 c 2.781848,0 5,-2.218152 5,-5 l 0,-2 0,-68 0,-2 C 89,10.635705 88.94788,10.279012 88.875,9.9375 88.83085,9.730607 88.78662,9.539842 88.71875,9.34375 88.71105,9.3218 88.69545,9.30306 88.6875,9.28125 88.62476,9.107511 88.549117,8.913801 88.46875,8.75 88.42717,8.6672 88.38971,8.580046 88.34375,8.5 88.28915,8.40279 88.216976,8.31165 88.15625,8.21875 88.06214,8.077785 87.951329,7.942755 87.84375,7.8125 87.700576,7.63805 87.540609,7.465502 87.375,7.3125 87.36383,7.3023 87.35502,7.29135 87.34375,7.28125 87.205364,7.155694 87.058659,7.046814 86.90625,6.9375 86.803679,6.86435 86.701932,6.784136 86.59375,6.71875 c -0.0074,-0.0045 -0.02384,0.0044 -0.03125,0 -0.232039,-0.138728 -0.462548,-0.274778 -0.71875,-0.375 0.301527,0.0968 0.596455,0.204138 0.875,0.34375 0.55709,0.279224 1.060053,0.665694 1.5,1.09375 0.219973,0.214028 0.409366,0.441865 0.59375,0.6875 0.184384,0.245635 0.355408,0.507743 0.5,0.78125 0.14012,0.265048 0.276135,0.524729 0.375,0.8125 0.01041,0.03078 0.02133,0.06274 0.03125,0.09375 0.09046,0.278085 0.1388,0.579404 0.1875,0.875 C 89.95865,11.3493 90,11.665279 90,12 l 0,2 0,68 0,2 c 0,3.324 -2.676,6 -6,6 l -72,0 z"
       id="path3615"
       style="opacity:0.2;fill:url(#radialGradient3733);fill-opacity:1;fill-rule:nonzero;stroke:none" />
    <g
       clip-path="url(#clipPath3646)"
       id="g3126"
       transform="matrix(1.9345889,0,0,1.9345889,1.3823975,3.2849555)">
      <g
         style="display:inline"
         id="layer1-8"
         inkscape:label="Livello 1">
        <path
           transform="matrix(1.04473,0,0,0.727309,-0.094598,13.0177)"
           d="m 45.078058,39.161163 c 0,3.417088 -8.785164,6.187185 -19.622213,6.187185 -10.837049,0 -19.6222135,-2.770097 -19.6222135,-6.187185 0,-3.417087 8.7851645,-6.187184 19.6222135,-6.187184 10.837049,0 19.622213,2.770097 19.622213,6.187184 z"
           sodipodi:ry="6.1871843"
           sodipodi:rx="19.622213"
           sodipodi:cy="39.161163"
           sodipodi:cx="25.455845"
           id="path3254"
           style="opacity:0.22352899;color:#000000;fill:url(#radialGradient3498);fill-opacity:1;fill-rule:nonzero;stroke:none;stroke-width:1;marker:none;visibility:visible;display:inline;overflow:visible"
           sodipodi:type="arc" />
        <g
           style="filter:url(#filter3474)"
           id="g3298">
          <g
             id="g2375"
             transform="matrix(0.90733,0,0,0.926893,3.14875,4.02494)">
            <path
               inkscape:connector-curvature="0"
               sodipodi:nodetypes="cssssssscc"
               id="path1314"
               d="m 24.634088,27.484359 c -0.237945,0.675665 0.182485,1.248618 0.86419,1.61831 1.404127,0.761464 2.926139,-0.167957 3.370392,-1.652367 0.792111,-2.646724 -0.237945,-4.718701 -2.442214,-5.797574 -4.211252,-2.061185 -8.459758,1.46557 -9.919214,5.394366 -2.204269,5.933802 2.216574,12.469422 8.364532,14.0118 9.213857,2.311542 18.11317,-4.565427 20.151807,-13.198127 C 47.953982,15.451859 38.466478,3.253309 26.28729,1.017909 17.470211,-0.60040077 7.180622,2.1474467 0.38712155,8.0646418 1.387121,18.064642 8.1391657,23.5 15.639166,27.5"
               style="fill:url(#radialGradient3500);fill-opacity:1;fill-rule:nonzero;stroke:#582a02;stroke-width:1.09044003;stroke-linecap:round;stroke-linejoin:miter;stroke-miterlimit:4;stroke-opacity:1;stroke-dasharray:none" />
            <path
               inkscape:connector-curvature="0"
               sodipodi:nodetypes="csssssscc"
               id="path2215"
               d="m 25.736223,28.023796 c 0.5,0.5 1.512374,0.37402 1.985446,-0.717282 0.49156,-1.133951 0.49156,-3.427926 -1.617295,-4.568114 -3.396962,-1.836627 -7.747163,1.045186 -8.906899,5.625967 -1.222154,4.827321 2.993024,10.591009 7.952889,11.668738 C 33.879487,41.929856 41.887182,35.907276 43.928086,27.55413 46.676145,16.306695 38.470015,4.8174055 26.28729,2.1308393 19.114881,0.54916101 8.1020654,2.6702759 1.4892564,8.6040784 2.6261826,17.473464 9.1110152,22.771135 15.758616,26.410962"
               style="opacity:0.49019602;fill:none;stroke:url(#linearGradient3502);stroke-width:1.09044003;stroke-linecap:round;stroke-linejoin:miter;stroke-miterlimit:4;stroke-opacity:1;stroke-dasharray:none" />
            <path
               inkscape:connector-curvature="0"
               style="fill:url(#linearGradient3504);fill-opacity:1;fill-rule:evenodd;stroke:none"
               d="m 21.9375,4.8125 c 1.81466,4.6344652 2.72091,10.188642 0.90625,15.75 C 24.009085,21.170774 25.573272,21.766726 26,22.375 28.258231,14.049247 27.3751,8.5157272 21.9375,4.8125 z M 11.999998,5.5000005 C 14.999998,9.0000011 19.107723,15.222706 19,21 c 1.381579,-0.337719 2.236609,-0.989612 3.499997,-0.499997 -0.5,-7 -4,-14.0000023 -10.499999,-15.0000025 z M 30.09375,7.59375 c -0.355612,6.185518 -1.356675,10.646785 -3.625,15.28125 0.529306,0.917805 1.312321,1.816802 1.09375,2.84375 -0.03998,0.173226 -0.114611,0.379911 -0.21875,0.5625 -0.006,0.01018 -0.02503,0.02104 -0.03125,0.03125 l -0.6875,2.03125 c -0.02972,0.01142 -0.06608,0.04647 -0.09375,0.0625 -0.0139,0.0079 -0.04809,0.02456 -0.0625,0.03125 l -1.8125,1.40625 c 3.629319,0.463447 12.68534,-2.782392 14.5,-8.34375 -3.678676,2.85274 -6.579357,3.993118 -10.4375,5.5625 2.721989,-1.766889 8.641165,-6.511749 8.1875,-13 -2.499554,4.685136 -5.740175,8.151325 -8.6875,11.15625 2.325033,-3.736538 6.41165,-10.209856 1.875,-17.625 z"
               transform="matrix(1.10213,0,0,1.07887,-0.163946,-2.18465)"
               id="path2225"
               sodipodi:nodetypes="ccccccccccssccsccccccc" />
            <path
               inkscape:connector-curvature="0"
               sodipodi:nodetypes="ccccsc"
               id="path2234"
               d="M 19.626245,1.2043425 C 12.732887,1.4704151 6.0951254,3.8237042 1,8.2616005 1.1919415,10.181016 4.4488631,17.670647 6.4488631,20.170647 c 11.4999999,3 13.1903029,-21.7047041 36.6903029,-5.204704 -3.5,-6.5000001 -7.73459,-10.8978288 -15.23459,-12.8978288 C 25.694597,1.4787865 21.924031,1.1156516 19.626245,1.2043425 z"
               style="opacity:0.57254896;fill:url(#linearGradient3506);fill-opacity:1;fill-rule:nonzero;stroke:none" />
          </g>
          <path
             inkscape:connector-curvature="0"
             style="opacity:0.5;fill:url(#radialGradient3508);fill-opacity:1;fill-rule:evenodd;stroke:none"
             d="m 19.568211,34.473509 c 5.717666,8.070741 24.248072,0.436856 22.810596,-13.505076 1.923651,7.778599 -1.355889,14.728866 -6.647634,17.983704 -5.561095,3.420509 -13.054261,2.970397 -16.162962,-4.478628 z"
             id="path1911"
             sodipodi:nodetypes="ccsc" />
        </g>
      </g>
      <g
         style="display:inline"
         inkscape:label="gear"
         id="layer2-8" />
    </g>
    <rect
       width="66"
       height="66"
       rx="12"
       ry="12"
       x="15"
       y="15"
       clip-path="url(#clipPath3613)"
       id="rect3171"
       style="opacity:0.1;fill:url(#linearGradient3255);fill-opacity:1;fill-rule:nonzero;stroke:#ffffff;stroke-width:0.5;stroke-linecap:round;stroke-linejoin:miter;stroke-miterlimit:4;stroke-opacity:1;stroke-dasharray:none;stroke-dashoffset:0;filter:url(#filter3794)" />
    <g
       style="opacity:0.5;display:inline"
       id="g4324"
       transform="matrix(0.54913389,0,0,0.54913389,39.550292,3.4322875)">
      <path
         d="m 52.78125,12.5 c -1.309378,0.0031 -2.638328,0.112817 -4,0.28125 -9.395321,1.16149 -15.679137,5.506337 -18.65625,11.03125 -0.01061,0.01968 -0.02073,0.04279 -0.03125,0.0625 -0.02129,0.0355 -0.04508,0.06463 -0.0625,0.09375 A 1.0846003,1.0846003 0 0 0 30,24.03125 c -0.07923,0.152591 -0.141239,0.308029 -0.21875,0.46875 -0.01047,0.02171 -0.02084,0.04059 -0.03125,0.0625 -2.704881,4.936926 -2.759311,10.779115 -0.21875,15.875 2.551193,5.117211 7.700825,9.469634 15.1875,11.59375 4.716235,1.339287 7.100148,3.049412 8.1875,4.78125 1.087352,1.731838 1.046096,3.658186 0.40625,5.90625 -0.639846,2.248064 -1.906515,4.722679 -3,7.15625 -1.093485,2.433571 -2.069405,4.846691 -1.9375,7.25 0.132662,2.406597 1.49581,4.464753 3.5625,5.71875 2.06669,1.253997 4.808911,1.746742 7.90625,1.25 6.194678,-0.993483 13.781081,-5.882104 20.375,-16.84375 0.156554,-0.260308 0.251192,-0.493663 0.34375,-0.65625 0.251892,-0.44247 0.553496,-0.892068 0.8125,-1.40625 0.0043,-0.0086 -0.0043,-0.02261 0,-0.03125 5.661877,-10.468383 5.017524,-23.595974 -0.25,-34.125 C 75.853249,20.493774 65.825503,12.473732 52.78125,12.5 z"
         id="path4253"
         style="fill:#000000;fill-opacity:0.09803922"
         xlink:href="#path3409"
         inkscape:original="M 52.78125 13.59375 C 51.517963 13.59675 50.227232 13.68035 48.90625 13.84375 C 39.744785 14.97633 33.840079 19.17168 31.0625 24.375 C 31.03085 24.4266 30.99975 24.47945 30.96875 24.53125 C 30.88236 24.69763 30.79877 24.86294 30.71875 25.03125 C 25.585176 34.31001 30.523874 46.89284 45 51 C 64.419046 56.5145 49.018562 68.86007 49.46875 77.0625 C 49.920836 85.26369 66.324467 88.22669 79.28125 66.6875 C 79.403404 66.48439 79.508018 66.26799 79.625 66.0625 C 79.88883 65.59906 80.168503 65.13105 80.40625 64.65625 C 91.362416 44.44348 77.982489 13.543 52.78125 13.59375 z "
         inkscape:radius="1.0844918"
         sodipodi:type="inkscape:offset"
         inkscape:href="#path3409" />
      <path
         d="m 52.78125,11.4375 c -1.354363,0.0032 -2.723613,0.107904 -4.125,0.28125 -9.615876,1.188756 -16.199853,5.702288 -19.375,11.53125 l -0.03125,0 c -0.028,0.04565 -0.04226,0.091 -0.0625,0.125 -0.01265,0.02125 -0.0527,0.04612 -0.0625,0.0625 a 2.1431903,2.1431903 0 0 0 -0.0625,0.09375 c -0.07353,0.141603 -0.14401,0.315391 -0.21875,0.46875 -0.02019,0.04143 -0.04232,0.08256 -0.0625,0.125 -2.838676,5.227289 -2.862562,11.415582 -0.1875,16.78125 2.696327,5.408322 8.083175,9.963289 15.8125,12.15625 4.581031,1.300893 6.708132,2.901966 7.59375,4.3125 0.885618,1.410534 0.878748,2.963221 0.28125,5.0625 -0.597498,2.099279 -1.827989,4.530763 -2.9375,7 -1.109511,2.469237 -2.150799,5.002448 -2,7.75 0.151832,2.754353 1.708039,5.152854 4.03125,6.5625 2.323211,1.409646 5.355088,1.93568 8.65625,1.40625 6.602324,-1.05886 14.387075,-6.225909 21.09375,-17.375 0.190129,-0.316134 0.306281,-0.535538 0.375,-0.65625 0.238402,-0.418773 0.505467,-0.89444 0.78125,-1.4375 0.0046,-0.0091 -0.0046,-0.02209 0,-0.03125 0.0066,-0.01218 0.02468,-0.01906 0.03125,-0.03125 5.834339,-10.819296 5.15411,-24.260458 -0.25,-35.0625 C 76.648118,19.739925 66.258497,11.41036 52.78125,11.4375 z"
         id="path4255"
         style="fill:#000000;fill-opacity:0.09803922"
         xlink:href="#path3409"
         inkscape:original="M 52.78125 13.59375 C 51.517963 13.59675 50.227232 13.68035 48.90625 13.84375 C 39.744785 14.97633 33.840079 19.17168 31.0625 24.375 C 31.03085 24.4266 30.99975 24.47945 30.96875 24.53125 C 30.88236 24.69763 30.79877 24.86294 30.71875 25.03125 C 25.585176 34.31001 30.523874 46.89284 45 51 C 64.419046 56.5145 49.018562 68.86007 49.46875 77.0625 C 49.920836 85.26369 66.324467 88.22669 79.28125 66.6875 C 79.403404 66.48439 79.508018 66.26799 79.625 66.0625 C 79.88883 65.59906 80.168503 65.13105 80.40625 64.65625 C 91.362416 44.44348 77.982489 13.543 52.78125 13.59375 z "
         inkscape:radius="2.142976"
         sodipodi:type="inkscape:offset"
         inkscape:href="#path3409" />
      <path
         d="m 52.78125,10.375 c -1.400204,0.0033 -2.839393,0.102898 -4.28125,0.28125 -9.871769,1.220391 -16.822299,5.86708 -20.1875,12.03125 -0.02449,0.03992 -0.01343,0.06395 -0.03125,0.09375 -0.01363,0.02525 -0.04899,0.0372 -0.0625,0.0625 -0.0035,0.0059 0.003,0.02619 0,0.03125 A 3.2219143,3.2219143 0 0 0 28.125,23.03125 c -0.06783,0.130643 -0.147815,0.293284 -0.21875,0.4375 -0.0304,0.06181 -0.06305,0.122918 -0.09375,0.1875 -2.976053,5.523852 -2.999995,12.108667 -0.1875,17.75 2.844221,5.70497 8.52341,10.424385 16.5,12.6875 4.443255,1.261768 6.288703,2.79188 6.96875,3.875 0.680047,1.08312 0.710596,2.239836 0.15625,4.1875 -0.554346,1.947664 -1.749158,4.338168 -2.875,6.84375 -1.125842,2.505582 -2.295052,5.151658 -2.125,8.25 0.171367,3.108722 1.977888,5.869245 4.5625,7.4375 2.584612,1.568255 5.866139,2.09399 9.375,1.53125 7.017722,-1.125481 15.022173,-6.534899 21.84375,-17.875 0.224342,-0.373022 0.361822,-0.609459 0.40625,-0.6875 0.227696,-0.399968 0.51871,-0.892599 0.8125,-1.46875 0.01704,-0.03341 0.01419,-0.05969 0.03125,-0.09375 6.016738,-11.178454 5.295272,-24.915794 -0.25,-36 C 77.471524,18.980654 66.699727,10.346971 52.78125,10.375 z"
         id="path4257"
         style="fill:#000000;fill-opacity:0.09803922"
         xlink:href="#path3409"
         inkscape:original="M 52.78125 13.59375 C 51.517963 13.59675 50.227232 13.68035 48.90625 13.84375 C 39.744785 14.97633 33.840079 19.17168 31.0625 24.375 C 31.03085 24.4266 30.99975 24.47945 30.96875 24.53125 C 30.88236 24.69763 30.79877 24.86294 30.71875 25.03125 C 25.585176 34.31001 30.523874 46.89284 45 51 C 64.419046 56.5145 49.018562 68.86007 49.46875 77.0625 C 49.920836 85.26369 66.324467 88.22669 79.28125 66.6875 C 79.403404 66.48439 79.508018 66.26799 79.625 66.0625 C 79.88883 65.59906 80.168503 65.13105 80.40625 64.65625 C 91.362416 44.44348 77.982489 13.543 52.78125 13.59375 z "
         inkscape:radius="3.2215922"
         sodipodi:type="inkscape:offset"
         inkscape:href="#path3409" />
    </g>
    <g
       style="opacity:0.5"
       id="g4377"
       transform="matrix(0.54913389,0,0,0.54913389,61.687741,-22.922042)">
      <path
         d="m -7.8125,104.96875 c -0.7946472,0.0431 -1.5764681,0.17414 -2.34375,0.375 -3.311768,0.86699 -5.92863,3.06277 -7.40625,5.875 -0.0108,0.0205 -0.02058,0.0419 -0.03125,0.0625 -1.658365,2.64442 -2.257085,5.93738 -1.40625,9.1875 1.63664,6.25177 8.027199,10.04349 14.28125,8.40625 3.3607054,-0.87979 5.9725857,-3.16983 7.4375,-6.03125 0.00746,-0.012 0.023829,-0.0192 0.03125,-0.0312 1.6252865,-2.62722 2.2519634,-5.86322 1.40625,-9.09375 -1.4324502,-5.4718 -6.5232824,-9.04542 -11.96875,-8.75 z"
         inkscape:href="#circle3411"
         id="path4339"
         style="fill:#000000;fill-opacity:0.09803922;display:inline"
         xlink:href="#circle3411"
         inkscape:original="M -7.78125 105.625 C -8.51413 105.6648 -9.2623 105.80688 -10 106 C -13.1499 106.82461 -15.61189 108.9135 -17 111.59375 C -18.58936 114.09483 -19.15342 117.21963 -18.34375 120.3125 C -16.79878 126.2141 -10.7766 129.76372 -4.875 128.21875 C -1.69305 127.38576 0.776401 125.21929 2.15625 122.5 C 3.707193 120.01247 4.300987 116.93468 3.5 113.875 C 2.148155 108.7111 -2.65106 105.34668 -7.78125 105.625 z "
         inkscape:radius="0.67228001"
         sodipodi:type="inkscape:offset" />
      <path
         d="m -7.84375,104.25 c -0.8588921,0.0466 -1.7019496,0.22858 -2.5,0.4375 -3.481447,0.91141 -6.242112,3.20501 -7.8125,6.15625 -0.02167,0.0407 -0.04128,0.084 -0.0625,0.125 -1.731347,2.79383 -2.331419,6.27281 -1.4375,9.6875 1.731986,6.61598 8.50436,10.60821 15.125,8.875 3.53799615,-0.9262 6.2882198,-3.3133 7.84375,-6.3125 0.017321,-0.0334 0.045479,-0.0602 0.0625,-0.0937 l -0.03125,0 c 1.6978269,-2.77083 2.3598229,-6.18995 1.46875,-9.59375 -1.5162886,-5.79206 -6.8828584,-9.59446 -12.65625,-9.28125 z"
         inkscape:href="#circle3411"
         id="path4341"
         style="fill:#000000;fill-opacity:0.09803922;display:inline"
         xlink:href="#circle3411"
         inkscape:original="M -7.78125 105.625 C -8.51413 105.6648 -9.2623 105.80688 -10 106 C -13.1499 106.82461 -15.61189 108.9135 -17 111.59375 C -18.58936 114.09483 -19.15342 117.21963 -18.34375 120.3125 C -16.79878 126.2141 -10.7766 129.76372 -4.875 128.21875 C -1.69305 127.38576 0.776401 125.21929 2.15625 122.5 C 3.707193 120.01247 4.300987 116.93468 3.5 113.875 C 2.148155 108.7111 -2.65106 105.34668 -7.78125 105.625 z "
         inkscape:radius="1.3715265"
         sodipodi:type="inkscape:offset" />
      <path
         inkscape:href="#circle3411"
         d="m -7.875,103.65625 c -0.9144043,0.0497 -1.8003634,0.22162 -2.625,0.4375 -3.633481,0.95121 -6.506944,3.35948 -8.15625,6.4375 -0.01247,0.0196 -0.01889,0.0428 -0.03125,0.0625 -0.01759,0.0332 -0.0452,0.0603 -0.0625,0.0937 -1.801586,2.92544 -2.432755,6.56195 -1.5,10.125 1.814373,6.93069 8.937601,11.12863 15.875,9.3125 3.70277402,-0.96933 6.5877368,-3.46158 8.21875,-6.59375 0.021505,-0.0413 0.041435,-0.0835 0.0625,-0.125 1.7636037,-2.89617 2.4309584,-6.47509 1.5,-10.03125 -1.5887311,-6.06878 -7.2245082,-10.04734 -13.28125,-9.71875 z"
         id="path4343"
         style="fill:#000000;fill-opacity:0.09803922;display:inline"
         xlink:href="#circle3411"
         inkscape:original="M -7.78125 105.625 C -8.51413 105.6648 -9.2623 105.80688 -10 106 C -13.1499 106.82461 -15.61189 108.9135 -17 111.59375 C -18.58936 114.09483 -19.15342 117.21963 -18.34375 120.3125 C -16.79878 126.2141 -10.7766 129.76372 -4.875 128.21875 C -1.69305 127.38576 0.776401 125.21929 2.15625 122.5 C 3.707193 120.01247 4.300987 116.93468 3.5 113.875 C 2.148155 108.7111 -2.65106 105.34668 -7.78125 105.625 z "
         inkscape:radius="1.9757264"
         sodipodi:type="inkscape:offset" />
    </g>
    <g
       style="opacity:0.5"
       id="g4382"
       transform="matrix(0.50375872,0,0,0.50375872,103.72733,-46.219851)">
      <path
         d="m -105,137.875 c -0.59134,-0.002 -0.93556,0.0502 -1.0625,0.0625 -3.51811,0.34055 -6.44092,2.46949 -8.03125,5.375 -0.003,0.005 -0.0285,-0.005 -0.0312,0 -0.0259,0.0384 -0.0371,0.0862 -0.0625,0.125 -0.0463,0.0877 -0.11249,0.16085 -0.15625,0.25 l 0.0312,0.0312 c -1.13651,1.8551 -1.75415,4.07239 -1.53125,6.375 0.54941,5.66883 5.68273,9.86065 11.34375,9.3125 2.95072,-0.2894 5.478959,-1.85393 7.15625,-4.03125 l 0.03125,0.0312 c 0.05337,-0.0586 0.07368,-0.12814 0.125,-0.1875 0.0098,-0.0114 0.02148,-0.0198 0.03125,-0.0312 -0.575291,0.7883 -0.520273,0.76887 0.09375,-0.0937 l -0.03125,-0.0312 c 1.225071,-1.47837 1.918713,-3.1512 2.21875,-4.75 -0.01288,0.076 -0.0219,0.1554 0.03125,-0.125 a 3.1360748,3.1360748 0 0 0 0,-0.0625 c 0.02406,-0.13964 0.08481,-0.406 0.125,-0.78125 0.0016,-0.0146 -0.0015,-0.0162 0,-0.0312 0.01367,-0.16016 0.03819,-0.45963 0,-0.0625 a 3.1360748,3.1360748 0 0 0 0,-0.0312 c 0.01322,-0.14049 0.02101,-0.32676 0.03125,-0.5625 0.009,-0.22757 0.0014,-0.29327 0,-0.28125 1.56e-4,-0.01 -1.4e-4,-0.0214 0,-0.0312 0.01425,-0.99576 -0.132459,-2.02652 -0.5,-3.09375 l 0.0625,-0.0312 c -0.01807,-0.0587 -0.07469,-0.098 -0.09375,-0.15625 -0.01196,-0.0318 0.01251,-0.0618 0,-0.0937 l -0.03125,0 c -1.398941,-4.14221 -5.27929,-7.07266 -9.75,-7.09375 z"
         inkscape:href="#path3413"
         id="path4267"
         style="fill:#000000;fill-opacity:0.09803922;display:inline"
         xlink:href="#path3413"
         inkscape:original="M -105 141 C -105.24425 140.999 -105.50161 141.0385 -105.75 141.0625 C -108.3405 141.31326 -110.46341 142.88677 -111.53125 145.0625 C -112.43709 146.40481 -112.88703 148.04284 -112.71875 149.78125 C -112.33338 153.75754 -108.78671 156.66607 -104.8125 156.28125 C -102.67392 156.0715 -100.86209 154.95246 -99.6875 153.34375 C -99.67035 153.32025 -99.64187 153.30495 -99.625 153.28125 C -98.7356 152.30498 -98.20883 150.99806 -97.96875 149.71875 C -97.96025 149.67785 -97.94529 149.63485 -97.9375 149.59375 C -97.90313 149.39425 -97.8637 149.19687 -97.84375 149 C -97.84155 148.9793 -97.84575 148.9583 -97.84375 148.9375 C -97.83048 148.79647 -97.81851 148.66965 -97.8125 148.53125 C -97.8096 148.45755 -97.81314 148.38663 -97.8125 148.3125 C -97.7994 147.48976 -97.89437 146.71357 -98.125 146.125 C -99.04245 143.14218 -101.82475 141.01498 -105 141 z "
         inkscape:radius="3.1357613"
         sodipodi:type="inkscape:offset" />
      <path
         d="m -105,138.71875 c -0.49806,-0.002 -0.80917,0.0471 -0.96875,0.0625 -3.26696,0.31624 -5.98641,2.29318 -7.4375,5 l -0.0312,0 c -0.0259,0.0384 -0.0372,0.0863 -0.0625,0.125 -0.0277,0.0539 -0.067,0.10179 -0.0937,0.15625 l 0.0312,0 c -1.08085,1.72056 -1.64637,3.77981 -1.4375,5.9375 0.50532,5.21399 5.19853,9.06676 10.40625,8.5625 2.74622,-0.26935 5.083487,-1.74081 6.625,-3.78125 l 0.03125,0.0312 c 0.02667,-0.0293 0.03638,-0.0642 0.0625,-0.0937 0.01003,-0.0113 0.0213,-0.0199 0.03125,-0.0312 -0.416084,0.57014 -0.3598,0.57467 0.09375,-0.0625 l -0.03125,-0.0312 c 1.14217,-1.34488 1.775414,-2.89594 2.0625,-4.40625 0.0018,-0.009 -0.0018,-0.0218 0,-0.0312 -0.01175,0.0679 -0.01182,0.10223 0.03125,-0.125 a 2.2933139,2.2933139 0 0 0 0,-0.0625 c 0.0264,-0.15324 0.0901,-0.39498 0.125,-0.71875 0.0015,-0.0137 -0.0014,-0.0172 0,-0.0312 0.0099,-0.12086 0.02757,-0.34918 0,-0.0625 0.01323,-0.14063 0.02215,-0.32166 0.03125,-0.53125 0.0081,-0.20471 9.9e-5,-0.29274 0,-0.28125 0.01544,-0.96958 -0.0862,-1.93339 -0.4375,-2.90625 l 0.03125,0 c -0.01407,-0.0458 -0.04777,-0.0796 -0.0625,-0.125 -0.0029,-0.009 0.003,-0.0222 0,-0.0312 -1.260317,-3.8484 -4.86547,-6.54299 -9,-6.5625 z"
         inkscape:href="#path3413"
         id="path4265"
         style="fill:#000000;fill-opacity:0.09803922;display:inline"
         xlink:href="#path3413"
         inkscape:original="M -105 141 C -105.24425 140.999 -105.50161 141.0385 -105.75 141.0625 C -108.3405 141.31326 -110.46341 142.88677 -111.53125 145.0625 C -112.43709 146.40481 -112.88703 148.04284 -112.71875 149.78125 C -112.33338 153.75754 -108.78671 156.66607 -104.8125 156.28125 C -102.67392 156.0715 -100.86209 154.95246 -99.6875 153.34375 C -99.67035 153.32025 -99.64187 153.30495 -99.625 153.28125 C -98.7356 152.30498 -98.20883 150.99806 -97.96875 149.71875 C -97.96025 149.67785 -97.94529 149.63485 -97.9375 149.59375 C -97.90313 149.39425 -97.8637 149.19687 -97.84375 149 C -97.84155 148.9793 -97.84575 148.9583 -97.84375 148.9375 C -97.83048 148.79647 -97.81851 148.66965 -97.8125 148.53125 C -97.8096 148.45755 -97.81314 148.38663 -97.8125 148.3125 C -97.7994 147.48976 -97.89437 146.71357 -98.125 146.125 C -99.04245 143.14218 -101.82475 141.01498 -105 141 z "
         inkscape:radius="2.2930846"
         sodipodi:type="inkscape:offset" />
      <path
         d="m -105,139.46875 c -0.41361,-0.002 -0.71712,0.0442 -0.90625,0.0625 -3.05611,0.29583 -5.58758,2.13904 -6.90625,4.6875 -0.008,0.0114 -0.0236,0.0198 -0.0312,0.0312 -0.0214,0.0418 -0.0418,0.0828 -0.0625,0.125 l 0.0312,0 c -1.03514,1.60033 -1.57157,3.53183 -1.375,5.5625 0.46541,4.80215 4.79648,8.33952 9.59375,7.875 2.5496,-0.25006 4.737216,-1.59678 6.15625,-3.5 0.0042,-0.006 -0.0041,-0.0257 0,-0.0312 0.01395,-0.0154 0.04871,-0.0157 0.0625,-0.0312 -0.271926,0.37261 -0.245745,0.33929 0.0625,-0.0937 1.049755,-1.22063 1.635353,-2.70161 1.90625,-4.125 0.0018,-0.009 -0.0018,-0.0218 0,-0.0312 -0.005,0.0342 4.19e-4,0.0377 0.03125,-0.125 a 1.5302191,1.5302191 0 0 0 0,-0.0312 c 0.0298,-0.17295 0.095,-0.3915 0.125,-0.6875 0.03532,-0.33235 0.02692,-0.34251 0,-0.0625 0.01324,-0.14077 0.02318,-0.3141 0.03125,-0.5 0.0056,-0.14321 7.69e-4,-0.22091 0,-0.25 1.67e-4,-0.0105 -1.42e-4,-0.0207 0,-0.0312 0.0122,-0.90118 -0.07112,-1.78929 -0.375,-2.625 -0.0042,-0.0136 -0.02701,-0.0177 -0.03125,-0.0312 -0.01084,-0.0292 0.0114,-0.0647 0,-0.0937 l -0.03125,0 c -1.154266,-3.5469 -4.47506,-6.07579 -8.28125,-6.09375 z"
         inkscape:href="#path3413"
         id="path4263"
         style="fill:#000000;fill-opacity:0.09803922;display:inline"
         xlink:href="#path3413"
         inkscape:original="M -105 141 C -105.24425 140.999 -105.50161 141.0385 -105.75 141.0625 C -108.3405 141.31326 -110.46341 142.88677 -111.53125 145.0625 C -112.43709 146.40481 -112.88703 148.04284 -112.71875 149.78125 C -112.33338 153.75754 -108.78671 156.66607 -104.8125 156.28125 C -102.67392 156.0715 -100.86209 154.95246 -99.6875 153.34375 C -99.67035 153.32025 -99.64187 153.30495 -99.625 153.28125 C -98.7356 152.30498 -98.20883 150.99806 -97.96875 149.71875 C -97.96025 149.67785 -97.94529 149.63485 -97.9375 149.59375 C -97.90313 149.39425 -97.8637 149.19687 -97.84375 149 C -97.84155 148.9793 -97.84575 148.9583 -97.84375 148.9375 C -97.83048 148.79647 -97.81851 148.66965 -97.8125 148.53125 C -97.8096 148.45755 -97.81314 148.38663 -97.8125 148.3125 C -97.7994 147.48976 -97.89437 146.71357 -98.125 146.125 C -99.04245 143.14218 -101.82475 141.01498 -105 141 z "
         inkscape:radius="1.5300661"
         sodipodi:type="inkscape:offset" />
    </g>
    <path
       inkscape:connector-curvature="0"
       id="path4286"
       d="m 68.534754,11.544968 c -0.693715,0.0016 -1.402499,0.04755 -2.127894,0.137284 -5.030868,0.621938 -8.273345,2.925747 -9.798607,5.783066 -0.01738,0.02833 -0.03446,0.05736 -0.05148,0.0858 -0.04744,0.09136 -0.09334,0.182142 -0.137283,0.274567 -2.81902,5.095282 -0.107013,12.00494 7.842318,14.260321 10.663659,3.028199 2.206728,9.80757 2.453942,14.311802 0.248258,4.503551 9.256047,6.130635 16.371054,-5.697264 0.06708,-0.111535 0.124527,-0.230367 0.188765,-0.343209 0.144878,-0.254491 0.298454,-0.511491 0.429011,-0.77222 C 89.720982,28.4856 82.373609,11.5171 68.534754,11.544968 z"
       style="fill:#000000;fill-opacity:0.19607843;display:inline" />
    <path
       inkscape:connector-curvature="0"
       id="path4371"
       d="m 57.447291,35.559362 c -0.402449,0.02186 -0.813294,0.09988 -1.218391,0.205925 -1.729716,0.452822 -3.081679,1.599902 -3.843937,3.071718 -0.872771,1.373428 -1.182516,3.089361 -0.737898,4.787761 0.848395,3.240769 4.155378,5.189985 7.396147,4.34159 1.747316,-0.457423 3.103375,-1.647105 3.861097,-3.14036 0.851676,-1.365987 1.177748,-3.056105 0.737899,-4.736279 -0.742344,-2.835673 -3.377756,-4.68319 -6.194917,-4.530355 z"
       style="fill:#000000;fill-opacity:0.19607843;display:inline" />
    <path
       inkscape:connector-curvature="0"
       id="path4373"
       d="m 50.755782,24.800417 c -0.134126,-5.49e-4 -0.275451,0.02114 -0.411851,0.03432 -1.422531,0.1377 -2.588293,1.001768 -3.17468,2.196535 -0.497427,0.737108 -0.744505,1.636606 -0.652096,2.591226 0.211619,2.183515 2.159216,3.780688 4.341589,3.56937 1.174367,-0.115181 2.169304,-0.729684 2.814312,-1.613081 0.0094,-0.0129 0.02506,-0.02131 0.03432,-0.03432 0.4884,-0.536103 0.777667,-1.253777 0.909503,-1.956289 0.0047,-0.02246 0.01288,-0.04607 0.01716,-0.06864 0.01887,-0.109552 0.04053,-0.21794 0.05148,-0.326048 0.0012,-0.01137 -0.0011,-0.0229 0,-0.03432 0.0073,-0.07744 0.01386,-0.147086 0.01716,-0.223086 0.0016,-0.04047 -3.52e-4,-0.07942 0,-0.120123 0.0072,-0.451794 -0.04496,-0.878026 -0.171605,-1.20123 -0.503803,-1.637968 -2.031658,-2.806085 -3.775295,-2.814311 z"
       style="fill:#000000;fill-opacity:0.19607843;display:inline" />
    <g
       transform="matrix(0.34868295,0,0,0.34868295,100.33204,6.4928112)"
       id="g4503">
      <path
         inkscape:connector-curvature="0"
         d="M -45.749655,92.691592 C -25.709638,59.370739 -49.98206,5.3291313 -94.363693,10.819389 c -40.099677,4.957276 -40.745797,47.164319 -5.405477,57.191066 30.582672,8.684677 6.318141,28.083081 7.027133,41.000925 0.711982,12.9159 26.586999,17.60186 46.992382,-16.319788 z"
         style="fill:#1b1a1b"
         id="path2339" />
      <circle
         cx="33.728001"
         cy="85.363998"
         r="15.414"
         transform="matrix(1.09179,-0.285817,0.285817,1.09179,-180.308,13.4941)"
         style="fill:#1b1a1b"
         id="circle2341"
         sodipodi:cx="33.728001"
         sodipodi:cy="85.363998"
         sodipodi:rx="15.414"
         sodipodi:ry="15.414"
         d="m 49.142,85.363998 c 0,8.512917 -6.901082,15.414002 -15.413999,15.414002 -8.512917,0 -15.414,-6.901085 -15.414,-15.414002 0,-8.512916 6.901083,-15.413999 15.414,-15.413999 8.512917,0 15.413999,6.901083 15.413999,15.413999 z" />
      <path
         inkscape:connector-curvature="0"
         d="m -140.06215,48.935849 c -6.25782,0.605754 -10.83867,6.164607 -10.23292,12.422426 0.6069,6.262186 6.16552,10.846595 12.42443,10.240555 6.25691,-0.613682 10.8416,-6.171209 10.23338,-12.429548 -0.60817,-6.253686 -6.16598,-10.839473 -12.42489,-10.233433 z"
         style="fill:#1b1a1b"
         id="path2343" />
      <path
         inkscape:connector-curvature="0"
         d="M -44.99294,91.339709 C -24.951831,58.018571 -49.224253,3.976963 -93.605885,9.4672202 -133.70556,14.424496 -134.35249,56.632918 -99.012168,66.659664 c 30.582671,8.684677 6.31814,28.083081 7.027419,41.002016 0.712788,12.91452 26.586427,17.59967 46.991809,-16.321971 z"
         style="fill:#bfbfbf"
         id="path2561" />
      <path
         inkscape:connector-curvature="0"
         d="m -86.84228,112.75985 c -1.214471,-1.96981 0.64273,-4.15809 2.551711,-3.9917 3.038711,0.26613 9.654932,-0.0356 14.875525,-2.99474 13.042632,-7.393716 33.114092,-42.969706 23.019203,-65.408115 -4.519408,-10.044409 -6.720057,-12.920331 -11.374321,-17.83365 -0.949463,-1.002058 -0.404394,-0.947592 0.238539,-0.608424 2.516861,1.320871 6.939597,6.437129 11.476145,14.764456 7.66485,14.069439 7.267361,30.795464 4.416643,41.287666 -1.985713,7.299047 -8.825282,23.811097 -18.841804,30.950427 -10.039061,7.15573 -21.785794,11.25982 -26.361641,3.83408 z"
         style="fill:#000000"
         id="path2563" />
      <path
         inkscape:connector-curvature="0"
         d="m -95.930347,66.591355 c -6.833063,-2.02837 -15.642033,-4.853088 -20.737233,-11.517566 -3.75613,-4.913949 -5.66292,-10.27703 -6.14987,-13.318086 -0.17324,-1.085101 -0.3204,-1.990371 -0.008,-2.240194 0.14462,-0.116023 2.80481,5.896793 6.78159,10.936136 3.97598,5.040721 9.5332,7.988734 14.16275,9.059851 4.117714,0.951954 12.647297,3.043679 15.533151,5.502233 2.96682,2.527189 3.21446,7.987461 2.216105,8.603468 -1.006805,0.619386 -3.048361,-4.429594 -11.798683,-7.025842 z"
         style="fill:#000000"
         id="path2565" />
      <path
         inkscape:connector-curvature="0"
         d="m -81.840812,113.72311 c -0.131887,1.56396 1.664497,1.87066 4.082532,1.5083 3.099333,-0.46487 5.720357,-0.81387 9.287657,-2.6017 4.834803,-2.42297 9.727871,-5.88899 13.3114,-10.56495 10.691779,-13.949489 14.477869,-30.454316 13.894819,-32.828575 -0.194838,1.960759 -2.775945,12.252886 -8.678864,21.531697 -7.581302,11.918428 -13.078929,18.266758 -25.758148,21.344518 -3.528595,0.85724 -5.966721,-0.44808 -6.139396,1.61071 z"
         style="fill:#ffffff"
         id="path2567" />
      <path
         inkscape:connector-curvature="0"
         d="m -109.96233,59.479354 c 1.44411,1.224884 4.40295,2.857035 10.224875,4.76629 7.031582,2.305388 10.455181,4.304682 11.888949,5.262785 1.519284,1.01738 2.482227,3.287522 2.577356,1.271202 0.09921,-2.018555 -1.144973,-3.754258 -3.921016,-4.674792 -1.878179,-0.623605 -5.037681,-2.108728 -8.066373,-2.706466 -1.946155,-0.384152 -5.112441,-1.146528 -7.827821,-1.977947 -1.48818,-0.45738 -3.00453,-1.258538 -4.87597,-1.941072 z"
         style="fill:#ffffff"
         id="path2569" />
      <circle
         cx="34.681"
         cy="84.375"
         r="15.414"
         transform="matrix(1.09179,-0.285817,0.285817,1.09179,-180.308,13.4941)"
         style="fill:#bfbfbf"
         id="circle2577"
         sodipodi:cx="34.681"
         sodipodi:cy="84.375"
         sodipodi:rx="15.414"
         sodipodi:ry="15.414"
         d="m 50.094999,84.375 c 0,8.512917 -6.901082,15.414 -15.413999,15.414 -8.512917,0 -15.414,-6.901083 -15.414,-15.414 0,-8.512917 6.901083,-15.414 15.414,-15.414 8.512917,0 15.413999,6.901083 15.413999,15.414 z" />
      <path
         inkscape:connector-curvature="0"
         d="m -128.68413,108.37945 c 13.53112,12.53839 33.898123,-4.68474 24.92968,-19.896853 -1.00709,-1.707941 -2.31462,-3.008246 -1.88461,-1.699876 2.86618,8.747107 0.21765,15.666689 -4.72414,19.231789 -4.84537,3.49669 -11.50527,4.08171 -16.83708,1.31735 -1.56573,-0.81156 -2.2151,0.37105 -1.48385,1.04759 z"
         style="fill:#000000"
         id="path2579" />
      <path
         inkscape:connector-curvature="0"
         d="m -118.06686,110.95477 c 1.72273,-0.36233 11.74244,-2.95735 14.09631,-11.198575 0.73312,-2.569486 0.86475,-2.053302 0.6576,-0.660963 -1.0574,7.106198 -7.77446,12.348148 -13.49017,12.542498 -1.15988,0.11931 -2.68172,-0.38642 -1.26374,-0.68296 z"
         style="fill:#ffffff"
         id="path2585" />
      <path
         inkscape:connector-curvature="0"
         d="m -139.30435,47.583681 c -6.25781,0.605754 -10.83866,6.164607 -10.23291,12.422425 0.60661,6.261094 6.16552,10.846596 12.42334,10.240842 6.258,-0.613969 10.84241,-6.172587 10.23309,-12.43064 -0.60708,-6.253972 -6.16461,-10.838667 -12.42352,-10.232627 z"
         style="fill:#bfbfbf"
         id="path2589" />
      <path
         inkscape:connector-curvature="0"
         d="m -144.46878,67.571208 c 0.0694,0.8043 1.17097,1.837581 2.9016,2.311988 1.4868,0.407575 5.3196,1.449398 10.24346,-1.658357 4.92386,-3.107755 5.49162,-11.420375 3.25331,-13.865289 -0.69285,-1.238396 -1.59385,-2.13998 -0.87696,-0.163576 1.81042,4.990494 -1.7075,9.658612 -4.7418,11.820226 -3.03321,2.161328 -6.88015,1.138492 -8.45097,0.659579 -1.57081,-0.478912 -2.39915,0.06459 -2.32864,0.895429 z"
         style="fill:#000000"
         id="path2591" />
      <path
         inkscape:connector-curvature="0"
         d="m -138.11472,68.687851 c 0.45128,-0.406294 2.73583,-0.240222 4.7985,-1.34951 2.06158,-1.109003 4.51203,-3.540087 4.9493,-6.994585 0.25759,-2.028519 0.33495,-1.519125 0.4375,-0.414353 -0.31997,5.743027 -5.60144,8.915235 -8.6219,9.333799 -0.81504,0.113037 -2.24938,0.04404 -1.5634,-0.575351 z"
         style="fill:#ffffff"
         id="path2597" />
      <path
         inkscape:connector-curvature="0"
         d="m -47.767489,69.693822 c 8.53275,-24.594316 -9.322968,-61.7361761 -45.44543,-57.26827 -32.638991,4.03546 -33.165311,38.388972 -4.400576,46.550934 32.582157,4.93204 12.962529,29.511038 10.179394,41.905804 -2.495131,11.11075 26.331212,12.93935 39.666612,-31.188468 z"
         style="fill:url(#linearGradient3759);fill-opacity:1"
         id="path2561_1_" />
      <path
         inkscape:connector-curvature="0"
         d="m -70.093288,88.904346 c -8.826757,-1.0923 -21.528979,18.836264 -9.552158,16.502364 11.974923,-2.33223 -11.976821,2.3339 0,0 5.756597,-0.85369 10.525643,-2.88613 14.794899,-7.7591 5.566565,-6.352377 13.88207,-20.07411 16.287064,-28.940024 2.02592,-7.475232 1.007602,-19.056819 -1.080822,-8.175033 -2.141927,11.167614 -11.622227,29.464094 -20.448983,28.371793 z"
         style="fill:#f3f3f3"
         id="path2571" />
      <path
         inkscape:connector-curvature="0"
         d="m -129.3854,104.84502 c 2.04356,0.0343 3.27967,0.32204 5.34905,1.77406 4.09067,1.69983 11.60987,0.62271 15.08205,-3.94827 3.47218,-4.570987 3.58619,-10.869069 2.26327,-14.674737 -3.23625,-9.314034 -16.9849,-9.149351 -23.12692,-1.416711 -6.64421,8.635238 -1.61102,18.231328 0.43255,18.265658 z"
         style="fill:#999999"
         id="path2581" />
      <path
         inkscape:connector-curvature="0"
         d="m -147.63565,61.683628 c 0.40732,1.28269 1.44811,3.154254 3.64595,3.466259 2.93489,0.416637 3.53491,1.742664 7.0005,1.054744 3.46559,-0.68792 6.09246,-3.528006 7.14363,-6.669567 1.20345,-4.346877 -0.59849,-6.59104 -3.31042,-8.594648 -2.71192,-2.003608 -8.6776,-1.788153 -12.23781,1.457264 -2.53013,2.304951 -3.23353,6.163046 -2.24185,9.285948 z"
         style="fill:#999999"
         id="path2593_2_" />
      <path
         inkscape:connector-curvature="0"
         d="m -136.11009,64.55822 c 2.66288,-0.697107 6.18464,-4.325607 4.43628,-7.095941 -2.15705,-3.413481 -8.1667,-0.491628 -8.36993,3.308751 -0.20403,3.801756 1.11136,4.526027 3.93365,3.78719 z"
         style="fill:#f3f3f3"
         id="path256" />
      <path
         inkscape:connector-curvature="0"
         d="m -116.11512,105.50904 c 2.27202,-0.59479 9.23253,-3.42724 7.92518,-13.546057 -0.66167,-5.125563 -3.45731,6.361345 -8.63415,8.079387 -7.84312,2.6027 -6.96198,7.47482 0.70897,5.46667 z"
         style="fill:#f3f3f3"
         id="path258" />
    </g>
  </g>
</svg>
